<svg width="52" height="24" viewBox="0 0 52 24" fill="none" xmlns="http://www.w3.org/2000/svg">
<path d="M2 19.1949C2.16274 20.6056 7.48433 20.9133 7.48433 20.9133C7.48433 20.9133 7.10188 15.8969 11.5609 16.1359C16.02 16.375 15.5887 21.0037 15.5887 21.0037H36.8507C36.7774 15.3785 40.5692 16.3201 40.5692 16.3201C45.4351 16.3201 44.7272 21.0037 44.7272 21.0037H48.3563C50.0081 21.0037 49.9267 20.5313 50 19.4323C49.9939 19.092 49.8863 18.7612 49.6908 18.4816C49.4952 18.202 49.2206 17.9863 48.9015 17.8616C49.528 15.2719 48.3482 10.9735 48.3482 10.9735C39.7067 2.05837 33.6447 2.00022 33.6447 2.00022C33.6447 2.00022 10.1533 2.08098 7.2565 2.00022C6.42447 1.99149 5.61118 2.24538 4.93401 2.72523C4.25685 3.20508 3.75086 3.88608 3.48908 4.6699C1.6908 9.37533 2.62656 17.8511 2.62656 17.8511C2.30995 18.2413 2.09479 18.7028 2 19.1949ZM14.2706 11.4135L10.137 11.466V6.5167H14.2706V11.4095V11.4135ZM19.1446 11.4135L14.9052 11.466V6.5167H19.1446V11.4095V11.4135ZM23.7989 11.4135L19.5108 11.466V6.5167H23.7989V11.4095V11.4135ZM28.4614 11.4135L24.279 11.466V6.5167H28.4614V11.4095V11.4135ZM32.9693 10.4849C31.8383 11.3441 31.7895 11.4337 30.3411 11.4458C28.8927 11.4579 28.8845 11.4507 28.8845 11.4507V6.46827L34.9629 6.44082C34.9629 6.44082 34.1085 9.62245 32.9693 10.4825V10.4849ZM38.8442 12.4343C38.8442 12.4343 37.5748 12.4916 37.0297 12.4544C36.4845 12.4173 36.9727 11.9877 36.9727 11.9877H38.8442C39.1697 11.9869 38.8442 12.4318 38.8442 12.4318L38.8442 12.4343ZM45.785 10.6932C45.785 10.6932 46.8835 11.4628 44.296 11.437C41.7084 11.4111 38.1363 11.4426 38.1363 11.4426C38.1363 11.4426 36.9402 11.8092 36.6716 9.53685V7.41953C36.6716 7.41953 36.2892 6.36976 38.4943 6.36976L40.6994 6.3649L45.785 10.6932ZM6.07664 3.7243C7.95628 3.68151 37.8515 3.7243 37.8515 3.7243C37.8515 3.7243 39.7963 4.74258 37.4772 4.70545C35.1582 4.66832 4.8968 4.70545 4.8968 4.70545C4.8968 4.70545 4.19701 3.76389 6.07664 3.72188V3.7243ZM6.02782 6.45778C7.27436 6.42162 8.52195 6.46585 9.76271 6.59022V11.6154H5.4908C5.33609 11.6363 5.1786 11.6203 5.03136 11.5688C4.88411 11.5173 4.75134 11.4317 4.644 11.3192C4.53667 11.2067 4.45786 11.0704 4.41409 10.9217C4.37032 10.773 4.36286 10.6161 4.3923 10.4639C4.42484 9.17186 4.58759 7.52452 4.58759 7.52452C4.58759 7.52452 4.46553 6.54578 6.02782 6.45536V6.45778ZM40.7401 17.3375C40.3657 17.3251 39.9926 17.386 39.6419 17.5168C39.2912 17.6475 38.97 17.8456 38.6964 18.0995C38.4229 18.3535 38.2025 18.6585 38.0477 18.997C37.893 19.3356 37.807 19.7011 37.7946 20.0726V20.2503C37.8107 20.8027 37.9894 21.3384 38.3086 21.7913C38.6278 22.2441 39.0736 22.5944 39.591 22.7989C40.1083 23.0035 40.6747 23.0533 41.2202 22.9423C41.7658 22.8312 42.2667 22.5642 42.6612 22.1741C43.0557 21.784 43.3265 21.2879 43.4404 20.7469C43.5542 20.2059 43.506 19.6437 43.3018 19.1295C43.0976 18.6153 42.7462 18.1717 42.291 17.8533C41.8359 17.5348 41.2967 17.3556 40.7401 17.3375L40.7401 17.3375ZM11.447 17.3375C11.0737 17.3261 10.7017 17.3878 10.3525 17.5191C10.0032 17.6504 9.68336 17.8487 9.41133 18.1027C9.13929 18.3567 8.92036 18.6614 8.76703 18.9994C8.6137 19.3374 8.52899 19.7021 8.51773 20.0726V20.2502C8.53625 20.7999 8.7163 21.3321 9.03572 21.7815C9.35514 22.2308 9.79999 22.5777 10.3155 22.7794C10.831 22.981 11.3947 23.0287 11.9372 22.9165C12.4797 22.8044 12.9772 22.5372 13.3687 22.148C13.7601 21.7588 14.0284 21.2644 14.1403 20.7259C14.2523 20.1873 14.2032 19.628 13.999 19.1168C13.7948 18.6055 13.4444 18.1647 12.991 17.8486C12.5375 17.5325 12.0009 17.3548 11.447 17.3375Z" fill="#01F6FC"/>
</svg>
